<?xml version="1.0" standalone="no"?>
<!DOCTYPE svg PUBLIC "-//W3C//DTD SVG 20010904//EN"
 "http://www.w3.org/TR/2001/REC-SVG-20010904/DTD/svg10.dtd">
<svg version="1.0" xmlns="http://www.w3.org/2000/svg"
 width="512.000000pt" height="512.000000pt" viewBox="0 0 512.000000 512.000000"
 preserveAspectRatio="xMidYMid meet">

<g transform="translate(0.000000,512.000000) scale(0.100000,-0.100000)"
fill="#000000" stroke="none">
<path d="M2400 4880 c-407 -51 -728 -211 -1003 -500 -667 -701 -553 -1832 241
-2400 82 -58 256 -152 344 -185 l46 -17 4 -212 c4 -186 7 -218 26 -270 74
-201 255 -339 464 -353 98 -7 184 9 273 52 123 60 213 159 266 293 21 51 24
79 29 271 l5 214 118 52 c331 148 620 426 781 750 56 115 110 269 138 399 19
86 22 132 22 311 0 231 -13 317 -74 506 -181 554 -673 975 -1255 1074 -113 19
-327 27 -425 15z m343 -550 c211 -54 394 -202 487 -395 73 -152 73 -149 77
-643 5 -521 5 -523 -80 -608 -39 -39 -66 -56 -106 -68 -71 -21 -96 -20 -173 4
l-63 19 -137 -44 c-86 -28 -155 -45 -185 -45 -31 0 -97 16 -183 45 l-134 45
-71 -20 c-85 -24 -106 -25 -172 -5 -63 19 -133 79 -164 142 l-24 48 0 445 c0
509 3 534 80 688 102 202 266 334 485 391 103 27 261 28 363 1z m-46 -2248
c23 -12 58 -36 78 -53 36 -32 92 -116 83 -125 -3 -2 -138 -3 -301 -2 l-296 3
17 35 c27 56 102 125 163 149 72 28 194 25 256 -7z m163 -717 c0 -18 -46 -90
-77 -121 -58 -58 -134 -88 -223 -88 -86 0 -143 21 -205 75 -43 38 -97 117 -89
130 6 10 594 13 594 4z"/>
<path d="M2436 4125 c-189 -48 -342 -201 -391 -390 -20 -78 -23 -883 -3 -903
16 -16 52 -15 112 3 77 23 121 18 268 -31 l137 -45 140 45 c150 49 202 55 271
31 51 -18 92 -19 108 -3 9 9 12 120 12 438 0 455 -2 474 -52 575 -58 116 -173
217 -297 262 -84 31 -220 39 -305 18z m-15 -438 c67 -45 75 -139 18 -196 -83
-83 -219 -23 -219 97 0 38 5 50 39 83 33 34 45 39 83 39 30 0 56 -8 79 -23z
m419 8 c57 -30 82 -126 46 -180 -23 -35 -74 -65 -111 -65 -37 0 -88 30 -111
65 -37 56 -14 148 45 180 34 19 95 19 131 0z"/>
<path d="M1776 1585 c-48 -25 -55 -43 -56 -130 -1 -367 303 -727 673 -797 l67
-13 0 -112 0 -113 -124 0 c-119 0 -126 -1 -155 -26 -38 -32 -49 -80 -27 -123
31 -60 40 -61 418 -61 322 0 345 1 375 20 41 25 58 79 39 125 -24 57 -46 65
-183 65 l-123 0 0 115 c0 113 0 115 23 115 46 0 174 43 257 86 161 82 281 203
365 364 56 110 85 211 92 330 5 93 5 96 -21 127 -33 40 -81 51 -123 30 -47
-25 -55 -41 -65 -134 -19 -170 -80 -306 -188 -413 -258 -259 -685 -246 -928
26 -92 103 -162 274 -162 396 0 60 -21 103 -60 123 -37 19 -57 19 -94 0z"/>
</g>
</svg>
